<svg id="Capa_1" enable-background="new 0 0 512 512" height="512" viewBox="0 0 512 512" width="512" xmlns="http://www.w3.org/2000/svg"><g><g><path d="m164.69 259.347c-5.857-5.858-5.857-15.354 0-21.212l217.739-217.765c5.857-5.858 15.353-5.858 21.21 0s5.857 15.354 0 21.212l-217.739 217.765c-5.856 5.858-15.353 5.859-21.21 0z" fill="#e2e2eb"/></g><g><path d="m220.179 314.842c-5.857-5.858-5.857-15.355 0-21.212l217.739-217.764c5.857-5.858 15.353-5.858 21.21 0s5.857 15.354 0 21.212l-217.739 217.764c-5.856 5.857-15.353 5.859-21.21 0z" fill="#bebcdf"/></g><g><g><path d="m455.066 211.782c-5.855 5.856-15.34 5.877-21.217 0l-165.114-165.134c-5.859-5.86-5.859-15.359 0-21.219 5.849-5.86 15.348-5.86 21.207 0l82.497 82.507 82.627 82.637c5.849 5.859 5.849 15.359 0 21.209z" fill="#f4f4f4"/></g><g><path d="m414.533 270.249c-5.817 5.837-15.338 5.869-21.207 0l-183.051-183.073c-5.859-5.86-5.859-15.359 0-21.209 5.859-5.86 15.358-5.86 21.207 0l91.456 91.467 91.596 91.596c5.858 5.86 5.858 15.36-.001 21.219z" fill="#f4f4f4"/></g><g><path d="m356.082 310.778c-5.828 5.829-15.33 5.878-21.207 0l-165.124-165.144c-5.859-5.86-5.859-15.349 0-21.209s15.358-5.86 21.207 0l82.497 82.507 82.627 82.637c5.859 5.849 5.859 15.349 0 21.209z" fill="#f4f4f4"/></g></g><g fill="#e2e2eb"><path d="m356.082 289.569c5.859 5.85 5.859 15.349 0 21.209-5.828 5.829-15.33 5.878-21.207 0l-82.627-82.637 21.207-21.209z"/><path d="m414.533 249.03c5.859 5.86 5.859 15.359 0 21.219-5.817 5.837-15.338 5.869-21.207 0l-91.596-91.606 21.207-21.209z"/><path d="m455.066 211.782c-5.855 5.856-15.34 5.877-21.217 0l-82.627-82.637 21.217-21.209 82.627 82.637c5.849 5.859 5.849 15.359 0 21.209z"/></g><g><g><path d="m511.787 429.273c-.16 4.93-12.628 9.17-12.628 9.17s7.809 17.099 5.359 22.599c-13.028 29.599-43.053 50.938-78.207 50.958h-.05c-34.225 0-63.75-20.209-77.348-48.988-2.47-5.19 6.809-22.829 6.809-22.829s-14.588-3.53-14.888-8.73c-3.389-47.058 34.875-90.637 85.427-90.637h.05c52.271.031 88.826 46.369 85.476 88.457z" fill="#8ce25d"/></g></g><path d="m511.787 429.273c-.16 4.93-12.628 9.17-12.628 9.17s7.809 17.099 5.359 22.599c-13.028 29.599-43.053 50.938-78.207 50.958v-171.183c52.271.03 88.826 46.368 85.476 88.456z" fill="#00cbb0"/><g><g><g><path d="m174.321 225.333c-2.25 17.609-4.114 33.304-9.342 46.763-8.713 22.432-19.883 38.947-27.913 49.028-5.699 7.16-9.818 11.08-10.338 11.56-6.032 5.657-15.545 5.354-21.197-.7-5.891-6.289 2.713-8.799 8.495-14.003.1-.1 4.383-8.141 1.634-18.276 10.498-13.949 26.606-40.688 31.385-78.067 1.06-8.22 8.549-14.029 16.787-12.979 8.208 1.049 11.538 8.454 10.489 16.674z" fill="#ff3c7d"/></g></g></g><g><g><g><path d="m258.577 332.387c-37.644 4.99-64.43 21.719-78.168 32.389-10.935-1.875-15.723 4.578-15.723 4.578s-10.138 10.929-15.992 5.561c-6.109-5.59-6.509-15.099-.92-21.209.48-.52 4.319-4.65 11.338-10.38 9.947-8.114 26.285-19.457 48.52-28.374 13.524-5.423 28.949-5.973 46.725-8.329 8.229-1.09 16.027.704 17.117 8.924 1.091 8.21-4.688 15.75-12.897 16.84z" fill="#b93d78"/></g></g></g><g><g><path d="m440.668 39.688c-.13-.15-.28-.3-.42-.44-29.135-29.149-70.039-42.798-115.131-38.458-44.023 4.25-86.936 25.259-120.841 59.168s-54.911 76.827-59.161 120.855c-3.249 33.709 3.559 65.067 19.367 90.927 5.349 8.75 11.718 16.859 19.087 24.219.15.15.29.29.44.42 30.35 30.104 71.801 42.179 114.692 38.039 22.017-2.12 43.743-8.44 64.21-18.459 20.477-10.02 39.674-23.759 56.631-40.708 33.905-33.909 54.911-76.827 59.161-120.855 4.329-44.891-9.169-85.599-38.035-114.708zm-42.333 214.352c-58.901 58.898-145.377 68.307-193.12 21.129-.15-.13-.29-.27-.44-.42-47.653-47.658-38.364-134.495 20.717-193.573 33.665-33.679 76.348-51.178 115.662-51.178 29.656 0 57.401 9.97 77.888 30.459.15.15.29.29.42.44 20.217 20.449 30.035 48.008 30.035 77.467 0 39.309-17.497 81.997-51.162 115.676z" fill="#ff80a9"/></g></g><g><path d="m180.409 364.776c-8.259 6.41.45-1.82-112.392 111.496-5.869 5.87-15.368 5.84-21.207 0l-21.337-21.339-21.086-21.09c-5.849-5.86-5.849-15.349 0-21.209 113.112-113.116 104.353-103.726 111.272-112.926 18.197 18.209 17.717 17.699 32.475 32.559 6.639 6.69 16.368 16.489 32.275 32.509z" fill="#4e6ba6"/></g><g><path d="m427.92 404.114c-.54 0-1.07 0-1.61.02-31.735.32-61.17 10.38-85.477 27.319.64 11.23 3.48 21.899 8.079 31.559 20.977-17.699 47.953-28.509 77.398-28.879.53-.02 1.07-.02 1.61-.02 28.945 0 55.601 10.09 76.598 26.929 4.349-9.77 6.909-20.499 7.269-31.769-24.086-15.899-52.912-25.159-83.867-25.159z" fill="#f4f4f4"/></g><path d="m511.787 429.273c-.36 11.27-2.92 21.999-7.269 31.769-20.997-16.839-47.653-26.929-76.598-26.929-.54 0-1.08 0-1.61.02v-29.999c.54-.02 1.07-.02 1.61-.02 30.955 0 59.781 9.26 83.867 25.159z" fill="#e2e2eb"/><path d="m180.409 364.776c-8.259 6.41.45-1.82-112.392 111.496-5.869 5.87-15.368 5.84-21.207 0l-21.337-21.339 122.661-122.665c6.639 6.689 16.368 16.488 32.275 32.508z" fill="#28487a"/><path d="m478.702 154.394c-4.249 44.028-25.256 86.947-59.161 120.855-16.957 16.949-36.154 30.689-56.631 40.708-20.467 10.02-42.193 16.339-64.21 18.459-42.912 4.143-84.357-7.949-114.692-38.039l21.207-21.209c47.743 47.178 134.219 37.769 193.12-21.129 33.665-33.679 51.162-76.367 51.162-115.675 0-29.459-9.819-57.018-30.035-77.467l21.207-21.209c28.865 29.109 42.363 69.817 38.033 114.706z" fill="#ff3c7d"/></g></svg>